<?xml version="1.0" standalone="no"?>
<!DOCTYPE svg PUBLIC "-//W3C//DTD SVG 20010904//EN"
 "http://www.w3.org/TR/2001/REC-SVG-20010904/DTD/svg10.dtd">
<svg version="1.0" xmlns="http://www.w3.org/2000/svg"
 width="735.000000pt" height="232.000000pt" viewBox="0 0 735.000000 232.000000"
 preserveAspectRatio="xMidYMid meet">

<g transform="translate(0.000000,232.000000) scale(0.100000,-0.100000)"
fill="#000000" stroke="none">
<path d="M1870 2130 c-41 -4 -100 -17 -130 -29 -30 -11 -63 -21 -72 -21 -10 0
-18 -4 -18 -8 0 -4 -39 -27 -86 -51 -70 -36 -103 -62 -185 -143 -54 -55 -99
-106 -99 -113 0 -7 -7 -18 -15 -25 -20 -16 -84 -152 -103 -220 -11 -39 -16
-98 -17 -200 0 -126 3 -155 24 -220 23 -71 67 -169 82 -180 3 -3 16 -22 27
-44 11 -21 30 -45 42 -53 11 -8 32 -32 45 -54 14 -21 43 -48 65 -59 22 -11 47
-31 55 -44 16 -25 92 -65 174 -93 24 -8 51 -21 58 -29 8 -8 24 -14 35 -14 12
0 57 -7 101 -16 141 -29 460 -2 504 41 8 8 26 18 41 22 54 13 148 63 177 94
17 17 45 38 63 46 18 7 37 24 41 36 5 13 24 37 43 53 49 44 126 174 154 263
65 203 57 370 -28 573 -13 31 -36 72 -51 91 -15 20 -27 38 -27 40 0 9 -55 70
-109 121 -30 28 -65 61 -77 74 -12 12 -25 22 -29 22 -10 0 -148 70 -155 79 -3
3 -35 16 -71 29 -109 37 -281 49 -459 32z m325 -95 c126 -28 200 -50 180 -53
-11 -3 -22 -7 -25 -11 -3 -3 -41 -18 -85 -32 -102 -34 -179 -63 -185 -69 -17
-18 -57 -26 -80 -16 -14 6 -27 13 -30 16 -6 6 -51 23 -165 64 -49 17 -91 34
-93 39 -2 4 -13 7 -24 7 -37 0 -14 10 88 36 175 46 278 50 419 19z m-465 -165
c0 -5 13 -10 28 -10 15 0 60 -16 100 -35 66 -32 72 -36 62 -55 -6 -11 -15 -20
-19 -20 -33 0 -187 -132 -294 -252 -26 -29 -56 -64 -66 -78 l-19 -25 -18 40
c-10 22 -24 47 -30 55 -26 32 -55 146 -56 217 -1 64 2 76 27 109 15 20 36 39
47 42 10 2 18 8 18 13 0 5 50 9 110 9 67 0 110 -4 110 -10z m810 0 c0 -5 8
-10 18 -10 39 0 82 -80 82 -152 0 -49 -36 -186 -55 -208 -7 -8 -21 -34 -30
-57 -10 -24 -19 -43 -22 -43 -7 0 -42 44 -43 53 0 12 -147 157 -159 157 -5 0
-23 16 -38 36 -27 34 -105 94 -123 94 -9 0 -40 39 -40 51 0 11 146 69 174 69
14 0 26 5 26 10 0 6 42 10 105 10 63 0 105 -4 105 -10z m-480 -155 c7 -8 18
-15 25 -15 6 0 33 -20 59 -45 27 -25 52 -45 58 -45 5 0 36 -26 68 -57 33 -32
68 -67 80 -78 30 -29 90 -101 90 -109 0 -3 9 -15 20 -26 l20 -20 -25 -28 c-14
-15 -25 -32 -25 -39 0 -6 -18 -26 -41 -44 -22 -17 -45 -42 -49 -55 -5 -13 -27
-35 -49 -48 -22 -14 -44 -34 -50 -44 -5 -9 -35 -35 -67 -57 -32 -22 -67 -48
-77 -58 -31 -31 -64 -38 -103 -22 -19 8 -37 21 -40 30 -3 8 -12 15 -19 15 -6
0 -20 9 -30 20 -10 11 -24 20 -31 20 -7 0 -28 18 -45 40 -18 22 -47 49 -65 59
-18 11 -45 38 -60 60 -14 22 -34 43 -43 46 -9 3 -30 28 -48 55 l-32 51 22 32
c51 72 230 257 250 257 7 0 32 18 54 41 71 69 128 94 153 64z m-721 -126 c8
-33 38 -107 67 -165 l53 -104 -25 -47 c-13 -27 -29 -55 -34 -63 -16 -26 -58
-144 -65 -182 -11 -58 -22 -49 -60 47 -65 163 -56 407 21 542 11 18 21 33 24
33 3 0 12 -27 19 -61z m1418 29 c57 -108 81 -255 63 -386 -7 -48 -21 -107 -31
-131 -10 -24 -19 -49 -19 -55 0 -6 -9 -24 -19 -40 l-19 -28 -13 58 c-7 33 -15
64 -19 69 -4 6 -13 28 -20 50 -7 22 -21 51 -31 64 -11 13 -19 28 -19 33 0 6
-9 23 -21 39 -19 27 -19 32 -7 47 25 29 95 184 113 250 10 34 19 62 21 62 2 0
11 -15 21 -32z m-1168 -458 c18 -26 43 -52 57 -59 14 -6 34 -26 45 -45 11 -20
28 -38 38 -41 10 -3 38 -26 62 -50 24 -25 48 -45 52 -45 5 0 26 -12 48 -27 42
-30 52 -63 19 -63 -11 0 -46 -9 -78 -21 -31 -11 -75 -26 -97 -32 -22 -5 -43
-14 -46 -19 -9 -14 -145 -12 -161 1 -7 7 -27 21 -45 31 -49 29 -64 60 -64 132
0 73 16 147 43 198 10 19 18 40 18 46 0 6 9 23 21 37 25 33 42 25 88 -43z
m982 13 c11 -27 24 -55 29 -65 16 -28 40 -135 40 -174 0 -66 -17 -107 -56
-134 -19 -14 -42 -31 -50 -38 -16 -15 -163 -19 -173 -5 -7 10 -194 73 -215 73
-29 0 -27 21 6 51 18 17 40 34 50 37 36 15 268 229 268 248 0 16 44 54 62 54
13 0 25 -15 39 -47z m-503 -390 c15 -10 29 -20 32 -24 14 -17 76 -38 178 -59
62 -14 112 -29 112 -36 0 -17 -39 -31 -163 -60 -95 -22 -129 -25 -222 -22
-151 6 -335 51 -335 83 0 10 67 29 180 51 36 7 91 31 100 44 8 11 63 39 78 40
7 0 25 -8 40 -17z"/>
<path d="M3094 1797 c-2 -7 -3 -76 -2 -152 l3 -140 403 -3 c266 -1 410 1 422
8 26 14 28 85 4 94 -9 3 -175 6 -370 6 l-355 0 3 48 3 47 376 0 c425 0 413 2
454 -76 28 -55 31 -83 10 -119 -8 -14 -19 -35 -24 -46 -5 -12 -29 -31 -53 -43
-41 -19 -61 -21 -241 -21 l-197 0 0 -45 0 -45 201 0 c229 0 250 -5 294 -72 40
-60 43 -98 11 -153 -49 -82 -34 -80 -434 -83 -195 -2 -365 -1 -378 2 -24 6
-24 7 -24 156 l0 150 55 0 54 0 3 -102 3 -103 286 -3 c172 -1 297 2 313 8 21
8 26 16 26 44 0 25 -6 38 -19 46 -12 6 -114 10 -260 10 l-241 0 0 94 c0 89 -1
94 -22 100 -34 9 -281 7 -296 -2 -9 -7 -12 -64 -10 -251 l3 -242 430 1 c237 0
448 5 470 10 22 5 47 18 57 30 9 11 20 20 25 20 30 0 93 125 93 185 0 43 -40
137 -70 165 -16 15 -30 32 -30 37 0 5 15 23 34 41 41 39 71 127 62 183 -9 59
-42 125 -71 145 -15 11 -36 27 -47 38 -45 41 -101 46 -536 46 -329 0 -414 -3
-418 -13z"/>
<path d="M4372 1359 l3 -451 157 -1 156 -2 4 48 3 47 -107 0 -108 0 0 356 0
355 53 -3 52 -3 3 -302 2 -303 50 0 50 0 0 345 c0 190 1 348 3 353 1 4 -71 8
-161 10 l-162 2 2 -451z"/>
<path d="M4894 1796 c-3 -8 -4 -29 -2 -48 l3 -33 350 -5 c318 -5 353 -7 385
-24 18 -10 40 -25 48 -32 7 -8 33 -25 56 -39 29 -17 49 -38 61 -65 10 -22 24
-45 31 -51 7 -5 18 -42 25 -80 15 -83 2 -174 -30 -216 -12 -14 -21 -31 -21
-37 0 -16 -48 -66 -64 -66 -7 0 -25 -14 -40 -31 -53 -59 -74 -63 -374 -67
-150 -2 -284 -1 -298 2 l-24 6 0 245 0 245 269 0 c148 0 281 -4 295 -9 33 -13
76 -88 76 -135 0 -40 -28 -104 -56 -127 -13 -11 -58 -15 -191 -17 l-173 -4 0
107 0 106 -52 -3 -53 -3 0 -155 0 -155 225 0 c254 0 249 -1 334 80 72 69 92
149 62 250 -11 36 -30 62 -76 106 -57 54 -64 58 -123 64 -34 3 -192 5 -352 3
l-290 -3 -3 -346 c-2 -273 0 -348 10 -350 7 -2 175 -2 373 1 328 5 363 7 398
25 20 10 37 22 37 27 0 4 7 8 16 8 23 0 100 56 125 91 12 17 32 41 45 54 13
13 24 29 24 35 0 6 9 30 19 53 41 89 37 197 -10 328 -26 70 -123 175 -194 208
-27 13 -53 28 -56 33 -16 25 -169 38 -472 38 -255 0 -309 -2 -313 -14z"/>
<path d="M3090 590 c0 -139 2 -161 16 -167 20 -7 166 14 174 25 3 5 13 11 22
15 48 17 74 109 52 185 -14 50 -18 54 -71 77 -41 19 -73 25 -124 25 l-69 0 0
-160z m143 97 c39 -17 62 -71 52 -123 -7 -38 -33 -60 -83 -70 l-32 -6 0 106
c0 117 1 118 63 93z"/>
<path d="M3710 585 l0 -165 110 0 110 0 0 35 0 35 -75 0 -75 0 0 35 0 35 55 0
c54 0 55 0 55 30 0 30 -1 30 -55 30 l-55 0 0 40 0 40 75 0 c73 0 75 1 75 25
l0 25 -110 0 -110 0 0 -165z"/>
<path d="M4280 737 c0 -8 7 -20 15 -27 8 -6 17 -22 21 -33 16 -55 116 -249
125 -240 13 13 119 226 119 239 0 6 9 23 20 37 27 34 26 37 -16 37 -34 0 -73
-28 -74 -55 0 -5 -12 -35 -26 -65 l-26 -55 -41 85 c-41 82 -43 85 -79 88 -28
2 -38 -1 -38 -11z"/>
</g>
</svg>
